<svg xmlns="http://www.w3.org/2000/svg" xmlns:xlink="http://www.w3.org/1999/xlink" width="1500" zoomAndPan="magnify" viewBox="0 0 1125 374.999991" height="500" preserveAspectRatio="xMidYMid meet" version="1.0"><defs><g/><clipPath id="4012d8da5c"><path d="M 121 114 L 364 114 L 364 358 L 121 358 Z M 121 114 " clip-rule="nonzero"/></clipPath><clipPath id="de239d21bb"><path d="M 280.382812 56.785156 L 421.503906 197.90625 L 202.039062 417.375 L 60.914062 276.25 Z M 280.382812 56.785156 " clip-rule="nonzero"/></clipPath><clipPath id="5a35607ca1"><path d="M 280.382812 56.785156 L 421.503906 197.90625 L 202.039062 417.375 L 60.914062 276.25 Z M 280.382812 56.785156 " clip-rule="nonzero"/></clipPath><clipPath id="0c06f6ef15"><path d="M 40 14 L 202 14 L 202 270.632812 L 40 270.632812 Z M 40 14 " clip-rule="nonzero"/></clipPath></defs><g clip-path="url(#4012d8da5c)"><g clip-path="url(#de239d21bb)"><g clip-path="url(#5a35607ca1)"><path fill="#1eeadb" d="M 343.910156 275.46875 L 363.464844 255.910156 L 303.382812 195.824219 L 361.328125 137.878906 L 341.761719 118.316406 C 341.78125 118.285156 341.800781 118.257812 341.824219 118.226562 C 341.792969 118.246094 341.761719 118.265625 341.730469 118.285156 L 340.625 117.179688 L 332.855469 124.945312 C 332.109375 125.628906 331.355469 126.320312 330.597656 127.082031 C 329.785156 127.894531 329.027344 128.699219 328.304688 129.5 L 282.679688 175.125 L 222.472656 114.917969 L 202.90625 134.484375 C 202.871094 134.457031 202.835938 134.429688 202.796875 134.402344 C 202.820312 134.441406 202.851562 134.476562 202.875 134.515625 L 201.769531 135.621094 L 211.457031 145.304688 C 212.414062 146.339844 213.410156 147.382812 214.46875 148.445312 C 215.507812 149.484375 216.535156 150.457031 217.550781 151.398438 L 261.976562 195.824219 L 242.785156 215.015625 C 241.984375 215.742188 241.179688 216.496094 240.367188 217.308594 C 239.609375 218.070312 238.917969 218.820312 238.234375 219.570312 L 223.550781 234.25 C 222.800781 234.9375 222.050781 235.625 221.289062 236.386719 C 220.476562 237.199219 219.722656 238.003906 218.996094 238.804688 L 133.480469 324.320312 C 132.679688 325.046875 131.875 325.800781 131.0625 326.617188 C 130.300781 327.375 129.613281 328.125 128.925781 328.875 L 121.203125 336.597656 L 122.300781 337.695312 C 122.273438 337.742188 122.234375 337.792969 122.207031 337.84375 C 122.257812 337.808594 122.300781 337.777344 122.351562 337.742188 L 141.90625 357.300781 L 282.679688 216.527344 L 327.042969 260.890625 C 327.984375 261.90625 328.957031 262.933594 330 263.972656 C 331.058594 265.035156 332.105469 266.03125 333.136719 266.984375 L 342.765625 276.613281 L 343.859375 275.519531 C 343.917969 275.5625 343.980469 275.605469 344.039062 275.644531 C 343.992188 275.585938 343.953125 275.527344 343.910156 275.46875 " fill-opacity="1" fill-rule="nonzero"/></g></g></g><g clip-path="url(#0c06f6ef15)"><path fill="#dd2b76" d="M 114.816406 270.785156 C 102.515625 270.785156 89.851562 265.359375 80.085938 257.757812 C 71.039062 251.246094 64.167969 241.839844 58.738281 232.070312 C 50.777344 217.597656 45.710938 201.320312 43.179688 185.035156 C 37.753906 153.558594 40.285156 120.273438 49.691406 89.886719 C 54.398438 74.6875 61.269531 60.21875 70.675781 47.554688 C 77.1875 38.144531 85.511719 29.460938 95.277344 23.675781 C 105.046875 17.886719 116.625 13.90625 127.839844 14.269531 C 140.140625 14.628906 152.808594 19.695312 162.574219 27.652344 C 175.234375 38.144531 184.644531 53.34375 190.433594 68.898438 C 200.5625 95.3125 203.09375 124.976562 200.5625 153.195312 C 198.390625 177.800781 191.515625 202.765625 179.9375 224.109375 C 171.617188 239.304688 160.039062 253.414062 145.207031 262.460938 C 136.160156 267.527344 125.308594 270.78125 114.816406 270.78125 Z M 116.988281 238.222656 C 123.863281 237.863281 130.011719 234.246094 135.078125 229.539062 C 143.761719 221.945312 150.273438 211.8125 154.976562 201.320312 C 165.105469 179.613281 169.085938 154.648438 169.085938 130.765625 C 168.726562 114.488281 166.554688 97.484375 160.765625 82.285156 C 157.511719 73.601562 153.53125 65.28125 147.382812 58.40625 C 143.039062 53.707031 137.972656 49.003906 131.824219 47.554688 C 128.203125 46.46875 123.863281 46.46875 120.246094 47.554688 C 113.011719 49.722656 106.5 54.789062 101.433594 60.578125 C 87.320312 77.582031 79 100.378906 75.382812 122.082031 C 71.039062 148.859375 71.402344 177.800781 81.171875 202.765625 C 84.789062 211.808594 89.128906 221.21875 96.003906 228.453125 C 101.070312 234.242188 109.390625 238.945312 116.988281 238.222656 Z M 116.988281 238.222656 " fill-opacity="1" fill-rule="nonzero"/></g><g fill="#dd2b76" fill-opacity="1"><g transform="translate(377.993427, 240.228575)"><g><path d="M 92.390625 -58.015625 C 92.722656 -57.898438 93.710938 -57.359375 95.359375 -56.390625 C 97.003906 -55.429688 98.789062 -53.988281 100.71875 -52.0625 C 102.644531 -50.132812 104.347656 -47.582031 105.828125 -44.40625 C 107.304688 -41.226562 108.046875 -37.316406 108.046875 -32.671875 C 108.046875 -25.523438 106.3125 -19.507812 102.84375 -14.625 C 99.382812 -9.75 94.617188 -6.09375 88.546875 -3.65625 C 82.484375 -1.21875 75.484375 0 67.546875 0 L 17.53125 0 C 15.59375 0 14.285156 -0.453125 13.609375 -1.359375 C 12.929688 -2.265625 12.59375 -3.457031 12.59375 -4.9375 L 12.59375 -107.1875 C 12.59375 -108.78125 12.929688 -110 13.609375 -110.84375 C 14.285156 -111.695312 15.59375 -112.125 17.53125 -112.125 L 65.15625 -112.125 C 74.457031 -112.125 82 -110.675781 87.78125 -107.78125 C 93.570312 -104.894531 97.859375 -101.097656 100.640625 -96.390625 C 103.421875 -91.679688 104.8125 -86.660156 104.8125 -81.328125 C 104.8125 -75.648438 103.875 -71.140625 102 -67.796875 C 100.125 -64.453125 98.191406 -62.039062 96.203125 -60.5625 C 94.222656 -59.09375 92.953125 -58.242188 92.390625 -58.015625 Z M 67.890625 -24.15625 C 72.085938 -24.15625 75.316406 -25.035156 77.578125 -26.796875 C 79.847656 -28.554688 80.984375 -31.363281 80.984375 -35.21875 C 80.984375 -39.1875 79.648438 -41.90625 76.984375 -43.375 C 74.316406 -44.851562 70.941406 -45.59375 66.859375 -45.59375 L 62.953125 -45.59375 C 61.023438 -45.59375 59.71875 -46.046875 59.03125 -46.953125 C 58.351562 -47.859375 58.015625 -49.050781 58.015625 -50.53125 L 58.015625 -63.46875 C 58.015625 -65.050781 58.351562 -66.265625 59.03125 -67.109375 C 59.71875 -67.960938 61.023438 -68.390625 62.953125 -68.390625 L 65.15625 -68.390625 C 70.15625 -68.390625 73.757812 -69.269531 75.96875 -71.03125 C 78.175781 -72.789062 79.28125 -75.316406 79.28125 -78.609375 C 79.28125 -82.460938 78.03125 -85.015625 75.53125 -86.265625 C 73.039062 -87.515625 69.582031 -88.140625 65.15625 -88.140625 L 39.296875 -88.140625 L 39.296875 -24.15625 Z M 67.890625 -24.15625 "/></g></g></g><g fill="#dd2b76" fill-opacity="1"><g transform="translate(494.875839, 240.228575)"><g><path d="M 61.25 -23.3125 C 63.175781 -23.3125 64.476562 -22.882812 65.15625 -22.03125 C 65.84375 -21.175781 66.1875 -19.957031 66.1875 -18.375 L 66.1875 -4.9375 C 66.1875 -3.457031 65.84375 -2.265625 65.15625 -1.359375 C 64.476562 -0.453125 63.175781 0 61.25 0 L 13.09375 0 C 11.164062 0 9.863281 -0.453125 9.1875 -1.359375 C 8.507812 -2.265625 8.171875 -3.457031 8.171875 -4.9375 L 8.171875 -18.375 C 8.171875 -19.957031 8.507812 -21.175781 9.1875 -22.03125 C 9.863281 -22.882812 11.164062 -23.3125 13.09375 -23.3125 L 23.8125 -23.3125 L 23.8125 -88.296875 L 13.4375 -88.296875 C 11.507812 -88.296875 10.203125 -88.75 9.515625 -89.65625 C 8.835938 -90.570312 8.5 -91.765625 8.5 -93.234375 L 8.5 -107.015625 C 8.5 -108.609375 8.835938 -109.828125 9.515625 -110.671875 C 10.203125 -111.523438 11.507812 -111.953125 13.4375 -111.953125 L 60.734375 -111.953125 C 62.660156 -111.953125 63.960938 -111.523438 64.640625 -110.671875 C 65.328125 -109.828125 65.671875 -108.609375 65.671875 -107.015625 L 65.671875 -93.234375 C 65.671875 -91.765625 65.328125 -90.570312 64.640625 -89.65625 C 63.960938 -88.75 62.660156 -88.296875 60.734375 -88.296875 L 50.53125 -88.296875 L 50.53125 -23.3125 Z M 61.25 -23.3125 "/></g></g></g><g fill="#dd2b76" fill-opacity="1"><g transform="translate(570.415562, 240.228575)"><g><path d="M 92.390625 -58.015625 C 92.722656 -57.898438 93.710938 -57.359375 95.359375 -56.390625 C 97.003906 -55.429688 98.789062 -53.988281 100.71875 -52.0625 C 102.644531 -50.132812 104.347656 -47.582031 105.828125 -44.40625 C 107.304688 -41.226562 108.046875 -37.316406 108.046875 -32.671875 C 108.046875 -25.523438 106.3125 -19.507812 102.84375 -14.625 C 99.382812 -9.75 94.617188 -6.09375 88.546875 -3.65625 C 82.484375 -1.21875 75.484375 0 67.546875 0 L 17.53125 0 C 15.59375 0 14.285156 -0.453125 13.609375 -1.359375 C 12.929688 -2.265625 12.59375 -3.457031 12.59375 -4.9375 L 12.59375 -107.1875 C 12.59375 -108.78125 12.929688 -110 13.609375 -110.84375 C 14.285156 -111.695312 15.59375 -112.125 17.53125 -112.125 L 65.15625 -112.125 C 74.457031 -112.125 82 -110.675781 87.78125 -107.78125 C 93.570312 -104.894531 97.859375 -101.097656 100.640625 -96.390625 C 103.421875 -91.679688 104.8125 -86.660156 104.8125 -81.328125 C 104.8125 -75.648438 103.875 -71.140625 102 -67.796875 C 100.125 -64.453125 98.191406 -62.039062 96.203125 -60.5625 C 94.222656 -59.09375 92.953125 -58.242188 92.390625 -58.015625 Z M 67.890625 -24.15625 C 72.085938 -24.15625 75.316406 -25.035156 77.578125 -26.796875 C 79.847656 -28.554688 80.984375 -31.363281 80.984375 -35.21875 C 80.984375 -39.1875 79.648438 -41.90625 76.984375 -43.375 C 74.316406 -44.851562 70.941406 -45.59375 66.859375 -45.59375 L 62.953125 -45.59375 C 61.023438 -45.59375 59.71875 -46.046875 59.03125 -46.953125 C 58.351562 -47.859375 58.015625 -49.050781 58.015625 -50.53125 L 58.015625 -63.46875 C 58.015625 -65.050781 58.351562 -66.265625 59.03125 -67.109375 C 59.71875 -67.960938 61.023438 -68.390625 62.953125 -68.390625 L 65.15625 -68.390625 C 70.15625 -68.390625 73.757812 -69.269531 75.96875 -71.03125 C 78.175781 -72.789062 79.28125 -75.316406 79.28125 -78.609375 C 79.28125 -82.460938 78.03125 -85.015625 75.53125 -86.265625 C 73.039062 -87.515625 69.582031 -88.140625 65.15625 -88.140625 L 39.296875 -88.140625 L 39.296875 -24.15625 Z M 67.890625 -24.15625 "/></g></g></g><g fill="#dd2b76" fill-opacity="1"><g transform="translate(687.297974, 240.228575)"><g><path d="M 88.296875 -23.8125 C 90.234375 -23.8125 91.539062 -23.382812 92.21875 -22.53125 C 92.894531 -21.6875 93.234375 -20.472656 93.234375 -18.890625 L 93.234375 -4.9375 C 93.234375 -3.457031 92.894531 -2.265625 92.21875 -1.359375 C 91.539062 -0.453125 90.234375 0 88.296875 0 L 17.53125 0 C 15.59375 0 14.285156 -0.453125 13.609375 -1.359375 C 12.929688 -2.265625 12.59375 -3.457031 12.59375 -4.9375 L 12.59375 -107.015625 C 12.59375 -108.941406 13.046875 -110.242188 13.953125 -110.921875 C 14.859375 -111.609375 16.050781 -111.953125 17.53125 -111.953125 L 34.375 -111.953125 C 35.957031 -111.953125 37.171875 -111.609375 38.015625 -110.921875 C 38.867188 -110.242188 39.296875 -108.941406 39.296875 -107.015625 L 39.296875 -23.8125 Z M 88.296875 -23.8125 "/></g></g></g><g fill="#dd2b76" fill-opacity="1"><g transform="translate(786.316265, 240.228575)"><g><path d="M 93.75 -23.8125 C 95.675781 -23.8125 96.976562 -23.382812 97.65625 -22.53125 C 98.34375 -21.6875 98.6875 -20.472656 98.6875 -18.890625 L 98.6875 -4.9375 C 98.6875 -3.457031 98.34375 -2.265625 97.65625 -1.359375 C 96.976562 -0.453125 95.675781 0 93.75 0 L 17.53125 0 C 15.59375 0 14.285156 -0.453125 13.609375 -1.359375 C 12.929688 -2.265625 12.59375 -3.457031 12.59375 -4.9375 L 12.59375 -107.015625 C 12.59375 -108.609375 12.929688 -109.828125 13.609375 -110.671875 C 14.285156 -111.523438 15.59375 -111.953125 17.53125 -111.953125 L 90.859375 -111.953125 C 92.785156 -111.953125 94.085938 -111.523438 94.765625 -110.671875 C 95.453125 -109.828125 95.796875 -108.609375 95.796875 -107.015625 L 95.796875 -92.890625 C 95.796875 -91.421875 95.453125 -90.234375 94.765625 -89.328125 C 94.085938 -88.421875 92.785156 -87.96875 90.859375 -87.96875 L 39.46875 -87.96875 L 39.46875 -69.421875 L 85.078125 -69.421875 C 87.003906 -69.421875 88.304688 -68.992188 88.984375 -68.140625 C 89.660156 -67.285156 90 -66.066406 90 -64.484375 L 90 -51.21875 C 90 -49.738281 89.660156 -48.546875 88.984375 -47.640625 C 88.304688 -46.734375 87.003906 -46.28125 85.078125 -46.28125 L 39.46875 -46.28125 L 39.46875 -23.8125 Z M 93.75 -23.8125 "/></g></g></g></svg>